<?xml version="1.0" standalone="no"?>
<!DOCTYPE svg PUBLIC "-//W3C//DTD SVG 20010904//EN"
 "http://www.w3.org/TR/2001/REC-SVG-20010904/DTD/svg10.dtd">
<svg version="1.0" xmlns="http://www.w3.org/2000/svg"
 width="2048.000000pt" height="1152.000000pt" viewBox="0 0 2048.000000 1152.000000"
 preserveAspectRatio="xMidYMid meet">
<metadata>
Created by potrace 1.16, written by Peter Selinger 2001-2019
</metadata>
<g transform="translate(0.000000,1152.000000) scale(0.100000,-0.100000)"
fill="#000000" stroke="none">
<path d="M0 5760 l0 -5760 10240 0 10240 0 0 5760 0 5760 -5951 0 c-5304 0
-5950 -2 -5939 -15 23 -28 5 -83 -42 -126 -57 -52 -131 -64 -175 -27 -15 12
-17 67 -3 103 7 18 6 31 -3 45 -12 20 -46 20 -4189 20 l-4178 0 0 -5760z
m7652 5124 c46 -14 88 -30 94 -35 19 -16 26 -76 12 -101 -12 -22 -14 -28 -17
-46 0 -5 -19 -17 -41 -27 -30 -13 -54 -16 -97 -12 -71 7 -107 23 -128 59 -9
16 -20 28 -24 28 -11 0 -23 74 -15 94 3 9 12 16 19 16 7 0 19 7 26 16 33 40
65 41 171 8z m2798 -2885 c-13 -46 -42 -68 -98 -73 -30 -3 -44 0 -57 14 -16
18 -15 21 32 67 27 27 60 49 73 50 13 1 28 7 34 13 17 17 27 -27 16 -71z
m1150 61 c27 -19 28 -24 27 -90 -3 -95 -13 -105 -90 -83 -31 8 -57 20 -57 24
0 5 -6 9 -14 9 -8 0 -30 17 -49 37 -37 39 -38 50 -2 97 18 24 26 26 88 26 53
0 75 -5 97 -20z m-1502 -226 c27 -8 29 -40 5 -73 -44 -56 -85 -92 -99 -87 -9
3 -20 6 -25 6 -13 0 -11 74 2 87 6 6 12 18 13 28 1 10 16 23 32 30 34 16 42
17 72 9z m-307 -396 c-12 -4 -21 -15 -21 -23 0 -9 -4 -13 -10 -10 -5 3 -10 -1
-10 -11 0 -18 -50 -84 -107 -141 -18 -18 -33 -37 -33 -43 0 -16 -36 -12 -51 6
-10 13 -8 19 14 40 15 14 27 29 27 35 0 5 36 45 80 90 44 44 80 84 80 90 0 5
12 2 26 -8 26 -16 26 -17 5 -25z m-3896 -29 c78 -47 106 -59 128 -55 20 4 30
1 34 -12 4 -9 15 -26 25 -36 32 -35 16 -46 -35 -27 -21 8 -33 4 -78 -30 -29
-21 -57 -39 -61 -39 -25 0 -148 191 -148 230 0 44 17 40 135 -31z m4738 -158
c4 -4 2 -20 -4 -35 -11 -24 -9 -30 18 -64 17 -20 36 -37 44 -37 8 -1 26 -7 41
-14 28 -14 64 -8 53 9 -3 5 -14 10 -24 10 -39 0 -57 54 -22 65 24 7 77 -14
114 -47 36 -31 48 -96 22 -121 -41 -42 -144 -29 -265 32 -85 44 -110 71 -114
126 -3 33 1 44 27 68 26 24 36 28 66 22 20 -4 40 -10 44 -14z m1285 -156 c40
-7 40 -21 -1 -66 -17 -20 -47 -54 -64 -75 -23 -27 -33 -33 -33 -21 0 9 -6 17
-13 17 -11 0 -12 12 -6 56 11 83 37 102 117 89z m-4058 -36 c17 -13 44 -45 60
-70 l28 -47 -30 -8 c-53 -15 -58 -38 -18 -79 35 -37 28 -38 -30 -8 -14 7 -28
13 -33 13 -4 0 -43 23 -87 50 -44 28 -84 50 -90 50 -8 0 -30 31 -30 44 0 8 54
61 76 75 29 18 117 7 154 -20z m3900 -228 c0 -5 -9 -11 -21 -14 -12 -3 -18
-10 -15 -15 3 -6 0 -12 -8 -15 -8 -3 -31 -36 -52 -73 -29 -53 -37 -77 -35
-109 3 -51 -28 -89 -82 -99 -20 -4 -52 -13 -70 -21 -36 -15 -124 -84 -120 -94
2 -3 -14 -26 -35 -50 -20 -24 -46 -55 -57 -68 -11 -13 -35 -40 -52 -59 -18
-19 -33 -39 -33 -44 0 -6 -5 -10 -11 -10 -11 0 -47 -40 -93 -104 -15 -23 -37
-50 -48 -61 -34 -36 -85 -110 -93 -134 -4 -14 -43 -60 -86 -104 -44 -44 -82
-91 -85 -104 -4 -13 1 -45 10 -72 23 -72 23 -72 -36 -65 -95 11 -186 -29 -279
-123 -26 -26 -42 -34 -55 -29 -18 6 -18 5 -2 -7 16 -13 15 -16 -12 -45 -16
-18 -34 -32 -40 -32 -19 0 -70 -53 -70 -72 0 -20 -25 -24 -36 -7 -9 14 26 89
42 89 15 0 56 68 48 81 -3 5 3 12 12 16 19 7 54 39 54 49 0 11 78 82 84 77 3
-4 6 -2 6 4 0 18 67 93 75 85 5 -4 5 -2 2 5 -9 14 42 75 151 183 148 145 212
230 213 282 0 13 -3 44 -7 71 -6 40 -4 47 10 47 10 0 25 -4 35 -10 19 -10 58
-1 117 27 17 8 58 44 90 80 33 36 101 108 152 160 50 51 92 98 92 103 0 6 5
10 11 10 11 0 45 33 140 136 96 104 189 170 189 135z m895 -108 c17 -4 32 -9
35 -12 3 -4 17 -12 32 -18 24 -11 47 -39 98 -119 8 -13 23 -24 32 -24 17 0 34
-17 26 -26 -3 -2 -32 -7 -65 -10 -57 -6 -64 -4 -153 40 -126 64 -154 101 -112
152 20 25 41 34 62 28 8 -3 29 -8 45 -11z m-7975 -281 c23 -12 38 -30 45 -50
9 -30 12 -32 60 -32 57 0 109 -26 127 -65 22 -49 -48 -109 -120 -103 l-37 4
46 13 c87 24 91 98 8 122 -36 11 -46 11 -71 -4 -54 -31 -69 -21 -46 29 11 24
10 29 -15 50 -54 46 -137 23 -137 -38 0 -30 -9 -35 -28 -16 -39 39 20 108 91
108 23 0 58 -8 77 -18z m4993 -128 c3 -4 0 -19 -8 -35 -18 -34 -19 -73 -2 -87
28 -23 66 -24 103 -3 41 25 49 22 38 -11 -14 -43 -4 -82 29 -110 37 -33 29
-36 -22 -9 -20 10 -52 26 -71 34 -19 9 -52 27 -73 41 -21 14 -41 26 -44 26
-15 0 -73 53 -73 67 0 39 100 110 123 87z m-2997 -205 c3 -6 -15 -33 -41 -59
l-48 -49 49 -30 c26 -17 53 -31 60 -31 6 0 32 18 57 40 25 22 50 40 55 40 29
0 20 -27 -23 -70 l-47 -47 39 -24 c21 -12 48 -29 59 -36 20 -13 26 -10 75 32
52 44 69 52 83 38 8 -9 -104 -123 -121 -123 -13 0 -296 168 -333 198 l-22 17
60 58 c59 56 84 68 98 46z m-5734 -66 c4 -45 2 -50 -35 -85 -23 -22 -49 -38
-63 -38 -15 0 -24 -6 -24 -15 0 -23 41 -18 91 10 24 13 58 31 76 40 18 9 37
23 44 31 6 8 20 14 30 14 16 0 18 -6 15 -35 -4 -29 0 -38 20 -51 23 -15 39
-15 90 1 19 6 22 2 28 -51 6 -56 6 -58 -26 -85 -18 -16 -42 -31 -52 -35 -11
-4 -37 -19 -59 -35 -22 -16 -44 -29 -49 -29 -5 0 -18 -9 -30 -20 -22 -20 -117
-60 -143 -60 -20 0 -55 40 -55 62 0 11 4 17 8 14 5 -3 16 4 25 15 21 23 1 27
-29 4 -25 -19 -79 -19 -97 0 -11 11 -14 29 -10 74 l6 60 -39 -19 c-44 -23
-114 -27 -114 -7 0 22 29 56 78 89 72 50 79 56 113 101 13 17 30 27 45 27 31
0 56 13 88 45 14 14 34 25 45 25 16 0 20 -9 23 -47z m10946 -240 c15 -16 40
-44 56 -63 15 -19 54 -63 87 -96 36 -38 59 -70 59 -84 0 -20 -4 -22 -47 -17
-27 3 -82 16 -123 30 -41 14 -100 32 -131 41 -72 21 -115 52 -98 72 16 19 45
18 114 -6 59 -20 115 -26 115 -12 0 4 -20 25 -45 45 -47 40 -80 91 -70 107 12
19 55 10 83 -17z m-3104 -544 c60 -22 164 -97 183 -132 24 -43 16 -81 -28
-131 -22 -25 -46 -46 -52 -46 -14 0 -345 199 -353 212 -4 5 9 26 27 45 74 77
125 89 223 52z m6488 -137 c-7 -2 -12 -8 -12 -14 0 -6 -13 -30 -30 -55 -16
-24 -30 -48 -30 -54 0 -5 -4 -9 -8 -9 -4 0 -13 -12 -19 -27 -12 -29 -90 -144
-117 -175 -9 -10 -16 -21 -16 -24 0 -4 -17 -32 -38 -63 -21 -31 -41 -63 -45
-71 -4 -8 -37 -55 -72 -105 -36 -49 -103 -146 -149 -215 -87 -127 -176 -256
-269 -389 -67 -95 -77 -110 -106 -160 -14 -22 -28 -41 -33 -41 -4 0 -8 -4 -8
-9 0 -5 -18 -37 -40 -70 -22 -33 -40 -63 -40 -66 0 -3 -10 -16 -23 -28 -13
-12 -45 -58 -71 -101 -51 -84 -61 -98 -88 -124 -10 -9 -18 -21 -18 -26 0 -14
-164 -254 -205 -301 -49 -55 -49 -56 -65 -92 -8 -18 -18 -33 -21 -33 -7 0 -89
-106 -89 -115 0 -8 -37 -43 -59 -55 -12 -6 -21 -17 -21 -25 0 -8 -8 -20 -17
-27 -10 -7 -19 -23 -21 -36 -2 -21 -56 -97 -112 -158 -11 -12 -20 -27 -20 -33
0 -6 -7 -14 -15 -17 -8 -4 -15 -12 -15 -20 0 -8 -9 -19 -20 -26 -11 -7 -20
-18 -20 -25 0 -7 -5 -13 -11 -13 -5 0 -7 -4 -4 -10 3 -5 -11 -32 -32 -59 -21
-27 -53 -73 -70 -103 -45 -73 -87 -118 -91 -96 -2 9 7 34 20 55 13 21 30 58
38 82 8 26 22 46 32 49 10 2 18 10 18 17 0 7 25 45 54 83 30 39 62 85 72 103
9 18 20 37 25 43 5 6 28 43 51 81 22 39 56 85 74 104 19 19 34 40 34 48 0 8
20 44 45 82 25 38 45 71 45 75 0 10 89 136 116 164 12 12 27 36 34 52 7 17 16
30 21 30 5 0 9 5 9 10 0 13 205 328 235 363 6 7 28 40 49 73 21 34 45 70 54
80 9 11 29 37 45 59 15 22 47 67 72 100 48 65 65 89 104 150 14 22 29 42 32
45 4 3 23 30 43 60 78 116 105 156 120 175 51 65 63 82 81 111 32 52 105 157
129 184 12 14 39 50 60 80 20 30 57 82 81 115 24 33 61 85 81 115 43 62 106
141 147 182 15 15 27 32 27 37 0 5 8 16 18 23 10 7 21 21 25 31 8 21 50 39 56
24 2 -6 -1 -13 -7 -15z m-4277 -372 c42 -16 25 -35 -32 -35 -117 -1 -111 -79
11 -160 106 -70 167 -82 206 -40 23 25 23 26 6 62 -14 29 -15 38 -4 45 22 14
58 -37 58 -81 0 -58 -36 -86 -108 -86 -48 1 -70 8 -136 43 -136 73 -183 125
-172 188 12 60 96 92 171 64z m-984 -1172 c52 -91 70 -111 120 -134 30 -13 42
-15 48 -6 4 7 21 9 44 5 27 -4 37 -10 37 -24 0 -11 -6 -19 -12 -20 -7 0 -38
-1 -68 -2 l-55 -2 -1 -37 c-1 -21 2 -35 7 -33 16 10 21 -17 6 -32 -16 -16 -23
-8 -73 82 -17 32 -61 47 -158 57 -50 5 -94 12 -97 16 -4 4 -4 22 -2 41 6 33 6
33 47 28 22 -4 56 -9 74 -13 40 -8 42 7 7 58 -29 44 -31 63 -7 77 31 19 41 12
83 -61z m1685 -616 c26 -18 32 -44 13 -63 -11 -11 -24 -19 -30 -19 -21 0 -3
-35 20 -38 17 -3 22 0 19 10 -3 7 3 24 13 37 17 21 25 23 67 18 48 -6 121 -34
134 -51 10 -14 -13 -55 -35 -62 -10 -3 -39 -3 -63 1 -50 7 -57 -5 -24 -40 66
-70 -20 -153 -100 -98 -39 27 -49 45 -50 90 0 33 -4 43 -20 48 -12 4 -26 2
-33 -3 -38 -29 -105 -17 -131 23 -18 27 -20 39 -7 30 5 -3 11 5 13 17 3 20 8
23 45 21 37 -1 47 3 87 43 45 43 61 51 82 36z"/>
<path d="M8634 5207 c-22 -19 -37 -37 -34 -40 8 -7 202 -132 237 -152 l33 -19
30 29 c41 39 40 75 -3 117 -45 45 -125 87 -180 94 -41 6 -48 4 -83 -29z"/>
</g>
</svg>
